<svg width="81" height="80" fill="none" xmlns="http://www.w3.org/2000/svg"><path d="M67.043 18.46a4.456 4.456 0 004.451-4.452 4.456 4.456 0 00-4.45-4.45 4.455 4.455 0 00-4.45 4.45 4.455 4.455 0 004.45 4.451zm0-6.842a2.393 2.393 0 012.39 2.39 2.393 2.393 0 01-2.39 2.39 2.392 2.392 0 01-2.389-2.39 2.392 2.392 0 012.39-2.39z" fill="#3A3BC5"/><path d="M73.804 17.841c.676-1.357 1.13-2.668 1.13-3.746 0-4.35-3.54-7.889-7.891-7.889a7.84 7.84 0 00-3.724.937C56.603 2.468 48.73 0 40.5 0 29.816 0 19.771 4.16 12.216 11.716 4.66 19.271.5 29.316.5 40c0 10.684 4.16 20.729 11.716 28.284C19.77 75.839 29.816 80 40.5 80c10.684 0 20.729-4.16 28.284-11.716C76.34 60.729 80.5 50.684 80.5 40c0-7.938-2.315-15.588-6.696-22.159zm4.62 21.128h-3.588c.033-.18.052-.363.052-.546 0-3.503-5.881-5.737-8.956-5.737h-8.207l-6.63-13.673c3.16-.312 6.2-.784 9.073-1.404 1.833 3.813 5.558 8.087 6.104 8.704l.77.871.772-.871c.44-.496 2.935-3.359 4.85-6.444a37.695 37.695 0 015.76 19.1zm-20.61 2.25a1.326 1.326 0 00-1.202-.769H46.364c-.508 0-.977.296-1.194.754l-.427.896H28.791c-.906 0-1.86-.142-2.82-.415l2.539-2.912a1.43 1.43 0 00.218-1.53 1.344 1.344 0 00-1.23-.804h-7.344c-.363 0-.699.148-.947.397a6.445 6.445 0 01-.819-2.09h47.544c1.64 0 3.88.765 5.356 1.742h-4.714v2.06h6.244c-.095.71-.973 1.574-2.341 2.29-1.443.755-3.27 1.262-4.546 1.262h-8.04c.074-.29.052-.601-.078-.881zm-2.801 1.291L43.132 56.427h-2.928L46.83 42.51h8.183zm-35.007 2.884h-2.057l2.694-6.895h5.372l-6.01 6.895zm-.266-20.797h2.233l4.744 8.09H21.05l-1.31-8.09zm27.146 8.09l-2.794-16.849h3.174l8.169 16.848h-8.55zm20.157-24.42a5.835 5.835 0 015.83 5.828c0 2.45-3.695 7.391-5.831 9.953-2.52-3.012-5.827-7.716-5.827-9.953a5.835 5.835 0 015.828-5.828zm-25.266-5.82c1.028 1.529 3.052 4.724 5.118 9.026l1.858-.892a76.811 76.811 0 00-4.651-8.352 37.57 37.57 0 0117.454 6.206 7.864 7.864 0 00-2.402 5.66c0 .482.093 1.012.253 1.571a79.952 79.952 0 01-9.273 1.365l-1.216-2.507a1.33 1.33 0 00-1.19-.746H43.22a1.321 1.321 0 00-1.304 1.54l.346 2.086-.544.003c-2.547 0-5.057-.102-7.5-.296 2.731-7.082 6.002-12.35 7.558-14.664zm-2.221-.375c-1.784 2.746-4.887 8.005-7.464 14.844-6.832-.709-13.035-2.167-17.883-4.243 6.614-6.364 15.522-10.36 25.347-10.6zm-24.26 66.259c4.849-1.907 10.92-3.239 17.526-3.872 2.465 6.212 5.234 10.951 6.842 13.47-9.339-.203-17.856-3.798-24.369-9.598zm19.672-4.05a95.58 95.58 0 0113.614.004c-2.565 6.315-5.407 10.988-6.804 13.117-1.432-2.182-4.261-6.844-6.81-13.121zm9.019 13.497c1.597-2.518 4.313-7.2 6.74-13.313 5.792.557 11.149 1.653 15.68 3.224-5.988 5.607-13.79 9.299-22.42 10.089zm24.04-11.697c-4.735-1.75-10.396-2.978-16.538-3.61 1.35-3.681 2.555-7.808 3.347-12.242l-2.028-.362c-.807 4.516-2.054 8.704-3.443 12.41a97.114 97.114 0 00-15.18-.002c-1.691-4.518-3.17-9.75-3.9-15.421l-2.044.263c.724 5.621 2.162 10.822 3.822 15.35-6.987.715-13.384 2.198-18.415 4.31C7.026 60.137 2.843 51.062 2.575 41.03h3.183v-2.06H2.575c.255-9.528 4.042-18.189 10.093-24.724 5.02 2.27 11.523 3.875 18.704 4.664a68.539 68.539 0 00-2.685 10.201l2.028.365c.666-3.707 1.647-7.19 2.765-10.36a96.147 96.147 0 009.124.347l2.193 13.223H29.105l-5.558-9.478a1.364 1.364 0 00-1.173-.671h-3.458a1.357 1.357 0 00-1.342 1.577l1.39 8.572h-1.406c-.362 0-.712.15-.962.413-.247.26-.378.613-.36.965.082 1.73.766 3.426 1.988 4.962l-2.541 6.507a1.43 1.43 0 00.149 1.328c.254.372.67.594 1.112.594h3.391c.386 0 .755-.17 1.012-.464l3.15-3.615c1.444.514 2.908.784 4.293.784h14.972l-5.92 12.435c-.197.413-.169.89.075 1.276s.662.616 1.118.616h4.437c.387 0 .754-.169 1.006-.464l11.835-13.862h9.619c1.603 0 3.762-.588 5.5-1.497.939-.491 1.698-1.043 2.264-1.634h4.73c-.26 9.687-4.169 18.48-10.398 25.051zm-28.325-8.6z" fill="#3A3BC5"/><path d="M55.816 36.488h-2.06v2.06h2.06v-2.06zm-8.586 0h-2.06v2.06h2.06v-2.06zm-12.877 0h-2.06v2.06h2.06v-2.06zm25.755 0h-2.06v2.06h2.06v-2.06zm-21.463 0h-2.06v2.06h2.06v-2.06zm4.293 0h-2.06v2.06h2.06v-2.06zm8.585 0h-2.06v2.06h2.06v-2.06zM18.237 52.965h-2.232v2.06h2.232v-2.06zm-2.525-16.367h-.387c-.694 0-1.387.078-2.058.23l.459 2.01a7.196 7.196 0 011.6-.18h.386v-2.06zM11.214 54.06c.752.375 1.55.645 2.375.802l.386-2.024a7.094 7.094 0 01-1.84-.622l-.92 1.844zm24.88-1.095h-2.232v2.06h2.232v-2.06zm-13.393 0H20.47v2.06h2.232v-2.06zm4.464 0h-2.232v2.06h2.232v-2.06zM9.142 42.212l-1.78-1.039a9.164 9.164 0 00-.955 2.317l1.994.518c.163-.63.413-1.234.741-1.796zm2.766-2.686l-.986-1.81c-.735.401-1.413.9-2.016 1.486l1.435 1.478a7.189 7.189 0 011.567-1.154zM9.275 49.63l-1.74 1.102c.447.708.99 1.352 1.612 1.915l1.382-1.528a7.198 7.198 0 01-1.254-1.489zm-1.102-3.69l-2.06.036c.015.842.143 1.675.383 2.475l1.974-.59a7.145 7.145 0 01-.297-1.921zm47.593 9.757a9.838 9.838 0 011.793.923l1.126-1.725a11.89 11.89 0 00-2.169-1.117l-.75 1.92zm4.814.733l-1.453 1.46c.477.475.907 1 1.278 1.561l1.72-1.136a11.94 11.94 0 00-1.545-1.886zm.759 4.808c.248.625.432 1.277.547 1.94l2.03-.352a11.87 11.87 0 00-.662-2.348l-1.915.76zm15.125-44.314l1.938.7c.448-1.242.675-2.545.675-3.875h-2.06a9.32 9.32 0 01-.553 3.175zm.158-5.872l1.973-.593c-1.438-4.785-5.934-8.127-10.935-8.127v2.06c4.099 0 7.784 2.74 8.962 6.66z" fill="#3A3BC5"/></svg>