<svg width="32" height="32" viewBox="0 0 32 32" fill="none" xmlns="http://www.w3.org/2000/svg">
<path d="M28.7005 14.2798C29.099 14.2729 29.4839 14.4246 29.7705 14.7015C30.0571 14.9784 30.222 15.3578 30.2288 15.7562C30.2357 16.1547 30.084 16.5396 29.8071 16.8262C29.5302 17.1128 29.1508 17.2776 28.7523 17.2845L17.5287 17.4763L17.7204 28.6999C17.7273 29.0984 17.5756 29.4833 17.2987 29.7699C17.0218 30.0565 16.6424 30.2213 16.2439 30.2282C15.8455 30.2351 15.4606 30.0834 15.174 29.8065C14.8874 29.5296 14.7225 29.1502 14.7156 28.7517L14.5239 17.5281L3.30023 17.7198C2.90177 17.7267 2.51691 17.575 2.2303 17.2981C1.94369 17.0212 1.77881 16.6418 1.77194 16.2433C1.76507 15.8449 1.91677 15.46 2.19367 15.1734C2.47056 14.8868 2.84997 14.7219 3.24842 14.715L14.4721 14.5233L14.2777 3.29701C14.2708 2.89856 14.4225 2.51369 14.6994 2.22708C14.9763 1.94047 15.3557 1.7756 15.7541 1.76873C16.1526 1.76186 16.5375 1.91356 16.8241 2.19045C17.1107 2.46734 17.2756 2.84675 17.2824 3.24521L17.4769 14.4715L28.7005 14.2798Z" fill="black"/>
</svg>
