<svg width="24" height="24" viewBox="0 0 24 24" fill="none" xmlns="http://www.w3.org/2000/svg">
<g clip-path="url(#clip0_2_632)">
<path d="M12 24C5.37258 24 -8.1423e-07 18.6274 -5.24537e-07 12C-2.34843e-07 5.37258 5.37258 -8.1423e-07 12 -5.24537e-07C18.6274 -2.34843e-07 24 5.37258 24 12C24 18.6274 18.6274 24 12 24Z" fill="#0052B5"/>
<path d="M23.2441 7.8C21.5417 3.244 17.1495 -2.66405e-07 11.9997 -4.91511e-07C6.84984 -7.16618e-07 2.45768 3.244 0.755199 7.8L23.2441 7.8Z" fill="white"/>
<path d="M0.75586 16.2C2.45834 20.756 6.8505 24 12.0003 24C17.1502 24 21.5423 20.756 23.2448 16.2L0.75586 16.2Z" fill="#D90026"/>
</g>
<defs>
<clipPath id="clip0_2_632">
<rect width="24" height="24" fill="white"/>
</clipPath>
</defs>
</svg>
